{
  "accessors": [
    {
      "bufferView": 2,
      "componentType": 5126,
      "count": 65497,
      "max": [
        0.14844682812690735,
        0.05663755536079407,
        0.14130765199661255
      ],
      "min": [
        -0.13810686767101288,
        -0.0074693565256893635,
        -0.13960833847522736
      ],
      "type": "VEC3"
    },
    {
      "bufferView": 2,
      "byteOffset": 785964,
      "componentType": 5126,
      "count": 65497,
      "max": [
        0.9998178482055664,
        0.9999741315841675,
        0.9999237060546875
      ],
      "min": [
        -0.9999345541000366,
        -0.9985060691833496,
        -0.9998677968978882
      ],
      "type": "VEC3"
    },
    {
      "bufferView": 1,
      "componentType": 5126,
      "count": 65497,
      "max": [
        0.9996340274810791,
        0.9996340274810791
      ],
      "min": [
        0.00012199999764561653,
        0.00012201070785522461
      ],
      "type": "VEC2"
    },
    {
      "bufferView": 0,
      "componentType": 5125,
      "count": 287046,
      "type": "SCALAR"
    },
    {
      "bufferView": 2,
      "byteOffset": 1571928,
      "componentType": 5126,
      "count": 63856,
      "max": [
        0.14557966589927673,
        0.05459614843130112,
        0.1268318146467209
      ],
      "min": [
        -0.14127923548221588,
        -0.006328598130494356,
        -0.13176341354846954
      ],
      "type": "VEC3"
    },
    {
      "bufferView": 2,
      "byteOffset": 2338200,
      "componentType": 5126,
      "count": 63856,
      "max": [
        0.9997601509094238,
        0.9999946355819702,
        0.9999568462371826
      ],
      "min": [
        -0.9994869232177734,
        -0.9595284461975098,
        -0.9999781847000122
      ],
      "type": "VEC3"
    },
    {
      "bufferView": 1,
      "byteOffset": 523976,
      "componentType": 5126,
      "count": 63856,
      "max": [
        0.9996340274810791,
        0.9996340274810791
      ],
      "min": [
        0.00012199999764561653,
        0.0004119873046875
      ],
      "type": "VEC2"
    },
    {
      "bufferView": 0,
      "byteOffset": 1148184,
      "componentType": 5125,
      "count": 275964,
      "type": "SCALAR"
    },
    {
      "bufferView": 2,
      "byteOffset": 3104472,
      "componentType": 5126,
      "count": 7070,
      "max": [
        0.1413249671459198,
        0.04596686735749245,
        0.12985444068908691
      ],
      "min": [
        -0.1256091147661209,
        -0.0004589318996295333,
        -0.10947216302156448
      ],
      "type": "VEC3"
    },
    {
      "bufferView": 2,
      "byteOffset": 3189312,
      "componentType": 5126,
      "count": 7070,
      "max": [
        0.9997620582580566,
        0.9999704360961914,
        0.9998083114624023
      ],
      "min": [
        -0.9997382164001465,
        -0.9819172620773315,
        -0.9994205236434937
      ],
      "type": "VEC3"
    },
    {
      "bufferView": 1,
      "byteOffset": 1034824,
      "componentType": 5126,
      "count": 7070,
      "max": [
        0.9996340274810791,
        0.9996340274810791
      ],
      "min": [
        0.00012199999764561653,
        0.0038560032844543457
      ],
      "type": "VEC2"
    },
    {
      "bufferView": 0,
      "byteOffset": 2252040,
      "componentType": 5125,
      "count": 24702,
      "type": "SCALAR"
    },
    {
      "bufferView": 2,
      "byteOffset": 3274152,
      "componentType": 5126,
      "count": 20993,
      "max": [
        0.1464269459247589,
        0.054905857890844345,
        0.12993693351745605
      ],
      "min": [
        -0.13714320957660675,
        -0.006328598130494356,
        -0.13253247737884521
      ],
      "type": "VEC3"
    },
    {
      "bufferView": 2,
      "byteOffset": 3526068,
      "componentType": 5126,
      "count": 20993,
      "max": [
        0.9997620582580566,
        0.9999704360961914,
        0.9996641874313354
      ],
      "min": [
        -0.9997382164001465,
        -0.9819172620773315,
        -0.9996696710586548
      ],
      "type": "VEC3"
    },
    {
      "bufferView": 1,
      "byteOffset": 1091384,
      "componentType": 5126,
      "count": 20993,
      "max": [
        0.9996309876441956,
        0.9996340274810791
      ],
      "min": [
        0.00012199999764561653,
        0.0018579959869384766
      ],
      "type": "VEC2"
    },
    {
      "bufferView": 0,
      "byteOffset": 2350848,
      "componentType": 5125,
      "count": 59457,
      "type": "SCALAR"
    },
    {
      "bufferView": 2,
      "byteOffset": 3777984,
      "componentType": 5126,
      "count": 5378,
      "max": [
        0.1536460667848587,
        0.023808736354112625,
        0.1536460667848587
      ],
      "min": [
        -0.1536460667848587,
        -0.026921074837446213,
        -0.1536460667848587
      ],
      "type": "VEC3"
    },
    {
      "bufferView": 2,
      "byteOffset": 3842520,
      "componentType": 5126,
      "count": 5378,
      "max": [
        1.0,
        0.9999281167984009,
        1.0
      ],
      "min": [
        -1.0,
        -0.9996875524520874,
        -1.0
      ],
      "type": "VEC3"
    },
    {
      "bufferView": 1,
      "byteOffset": 1259328,
      "componentType": 5126,
      "count": 5378,
      "max": [
        0.9976246356964111,
        0.9976577758789063
      ],
      "min": [
        0.0024453301448374987,
        0.0024112462997436523
      ],
      "type": "VEC2"
    },
    {
      "bufferView": 0,
      "byteOffset": 2588676,
      "componentType": 5125,
      "count": 29364,
      "type": "SCALAR"
    }
  ],
  "asset": {
    "extras": {
      "author": "SPACESCAN (https://sketchfab.com/spacescan)",
      "license": "CC-BY-4.0 (http://creativecommons.org/licenses/by/4.0/)",
      "source": "https://sketchfab.com/3d-models/mezze-plate-a452d031ad4641e08f08b8c69638a946",
      "title": "Mezze Plate"
    },
    "generator": "Sketchfab-13.74.0",
    "version": "2.0"
  },
  "bufferViews": [
    {
      "buffer": 0,
      "byteLength": 2706132,
      "name": "floatBufferViews",
      "target": 34963
    },
    {
      "buffer": 0,
      "byteLength": 1302352,
      "byteOffset": 2706132,
      "byteStride": 8,
      "name": "floatBufferViews",
      "target": 34962
    },
    {
      "buffer": 0,
      "byteLength": 3907056,
      "byteOffset": 4008484,
      "byteStride": 12,
      "name": "floatBufferViews",
      "target": 34962
    }
  ],
  "buffers": [
    {
      "byteLength": 7915540,
      "uri": "scene.bin"
    }
  ],
  "images": [
    {
      "uri": "textures/MEZE_PLATE_300K_Material_u1_v1_baseColor.jpeg"
    },
    {
      "uri": "textures/bowl_baseColor.jpeg"
    }
  ],
  "materials": [
    {
      "doubleSided": true,
      "name": "MEZE_PLATE_300K_Material_u1_v1",
      "pbrMetallicRoughness": {
        "baseColorTexture": {
          "index": 0
        },
        "metallicFactor": 0.0
      }
    },
    {
      "doubleSided": true,
      "name": "bowl",
      "pbrMetallicRoughness": {
        "baseColorTexture": {
          "index": 1
        },
        "metallicFactor": 0.449132,
        "roughnessFactor": 0.556771
      }
    }
  ],
  "meshes": [
    {
      "name": "Object_0",
      "primitives": [
        {
          "attributes": {
            "NORMAL": 1,
            "POSITION": 0,
            "TEXCOORD_0": 2
          },
          "indices": 3,
          "material": 0,
          "mode": 4
        }
      ]
    },
    {
      "name": "Object_1",
      "primitives": [
        {
          "attributes": {
            "NORMAL": 5,
            "POSITION": 4,
            "TEXCOORD_0": 6
          },
          "indices": 7,
          "material": 0,
          "mode": 4
        }
      ]
    },
    {
      "name": "Object_2",
      "primitives": [
        {
          "attributes": {
            "NORMAL": 9,
            "POSITION": 8,
            "TEXCOORD_0": 10
          },
          "indices": 11,
          "material": 0,
          "mode": 4
        }
      ]
    },
    {
      "name": "Object_3",
      "primitives": [
        {
          "attributes": {
            "NORMAL": 13,
            "POSITION": 12,
            "TEXCOORD_0": 14
          },
          "indices": 15,
          "material": 0,
          "mode": 4
        }
      ]
    },
    {
      "name": "Object_4",
      "primitives": [
        {
          "attributes": {
            "NORMAL": 17,
            "POSITION": 16,
            "TEXCOORD_0": 18
          },
          "indices": 19,
          "material": 1,
          "mode": 4
        }
      ]
    }
  ],
  "nodes": [
    {
      "children": [
        1
      ],
      "matrix": [
        1.0,
        0.0,
        0.0,
        0.0,
        0.0,
        2.220446049250313e-16,
        -1.0,
        0.0,
        0.0,
        1.0,
        2.220446049250313e-16,
        0.0,
        0.0,
        0.0,
        0.0,
        1.0
      ],
      "name": "Sketchfab_model"
    },
    {
      "children": [
        2
      ],
      "name": "root"
    },
    {
      "children": [
        3,
        8
      ],
      "matrix": [
        1.0,
        0.0,
        0.0,
        0.0,
        0.0,
        2.220446049250313e-16,
        1.0,
        0.0,
        0.0,
        -1.0,
        2.220446049250313e-16,
        0.0,
        0.0,
        0.0,
        0.0,
        1.0
      ],
      "name": "GLTF_SceneRootNode"
    },
    {
      "children": [
        4,
        5,
        6,
        7
      ],
      "name": "MEZE_PLATE_300K.001_0"
    },
    {
      "mesh": 0,
      "name": "Object_4"
    },
    {
      "mesh": 1,
      "name": "Object_5"
    },
    {
      "mesh": 2,
      "name": "Object_6"
    },
    {
      "mesh": 3,
      "name": "Object_7"
    },
    {
      "children": [
        9
      ],
      "matrix": [
        1.0,
        0.0,
        0.0,
        0.0,
        0.0,
        1.0,
        0.0,
        0.0,
        0.0,
        0.0,
        1.0,
        0.0,
        0.0,
        0.0029801130294799805,
        0.0,
        1.0
      ],
      "name": "BOWL_1"
    },
    {
      "mesh": 4,
      "name": "Object_9"
    }
  ],
  "samplers": [
    {
      "magFilter": 9729,
      "minFilter": 9987,
      "wrapS": 10497,
      "wrapT": 10497
    }
  ],
  "scene": 0,
  "scenes": [
    {
      "name": "Sketchfab_Scene",
      "nodes": [
        0
      ]
    }
  ],
  "textures": [
    {
      "sampler": 0,
      "source": 0
    },
    {
      "sampler": 0,
      "source": 1
    }
  ]
}
